<?xml version="1.0" standalone="no"?>
<!DOCTYPE svg PUBLIC "-//W3C//DTD SVG 20010904//EN"
 "http://www.w3.org/TR/2001/REC-SVG-20010904/DTD/svg10.dtd">
<svg version="1.0" xmlns="http://www.w3.org/2000/svg"
 width="376.000000pt" height="401.000000pt" viewBox="0 0 376.000000 401.000000"
 preserveAspectRatio="xMidYMid meet">
<g transform="translate(0.000000,401.000000) scale(0.100000,-0.100000)"
fill="#404040" stroke="none">
<path d="M2510 3770 c-30 -3 -64 -12 -76 -20 -24 -17 -73 -73 -261 -300 -71
-85 -210 -252 -308 -371 -355 -426 -410 -493 -442 -538 l-33 -45 0 -431 0
-432 24 -35 c29 -44 193 -246 386 -478 199 -238 357 -431 528 -644 103 -126
154 -182 178 -192 27 -11 126 -14 516 -14 524 0 528 0 528 54 0 26 -15 47
-162 223 -59 70 -196 238 -304 373 -109 135 -250 308 -314 385 -64 77 -174
212 -245 300 -71 88 -170 210 -220 270 -110 133 -125 154 -125 176 0 10 69
100 153 202 351 425 569 688 643 778 44 52 142 171 219 264 255 307 335 409
335 427 0 45 -18 47 -505 50 -253 2 -485 1 -515 -2z m-613 -1257 c-4 -3 -7 0
-7 7 0 7 3 10 7 7 3 -4 3 -10 0 -14z"/>
<path d="M405 3745 l-25 -24 0 -1690 c0 -1260 3 -1697 12 -1715 7 -17 24 -30
47 -36 21 -6 194 -10 416 -10 328 0 384 2 403 16 l22 15 0 1699 c0 1224 -3
1706 -11 1723 -6 14 -22 30 -36 36 -16 7 -149 11 -414 11 l-390 0 -24 -25z"/>
</g>
</svg>
